<svg xmlns="http://www.w3.org/2000/svg" width="331" height="148" viewBox="0 0 331 148" version="1.1"><path d="M 0 74.003 L 0 148.006 165.750 147.753 L 331.500 147.500 331.756 73.750 L 332.013 0 166.006 0 L 0 0 0 74.003 M 0.475 74.500 C 0.475 115.200, 0.599 131.704, 0.750 111.176 C 0.901 90.648, 0.901 57.348, 0.750 37.176 C 0.598 17.004, 0.475 33.800, 0.475 74.500 M 100.285 18.486 C 94.550 21.092, 87.335 25.766, 82.143 30.236 C 80.297 31.826, 76.352 34.320, 73.378 35.779 C 67.522 38.651, 64.877 42.597, 63.509 50.500 L 62.816 54.500 66.158 49.522 C 68.631 45.840, 71.042 43.759, 75.426 41.522 L 81.352 38.500 107.926 38.080 C 138.994 37.589, 137.294 36.352, 104.185 35.357 L 82.871 34.717 86.575 30.923 C 94.692 22.611, 107.870 18.040, 123.790 18.015 C 137.157 17.994, 141.750 20.870, 150.296 34.615 L 152.854 38.729 161.177 39.431 C 183.922 41.351, 208.577 45.950, 217.659 49.967 C 220.960 51.427, 222.686 51.703, 224.028 50.985 C 227.125 49.327, 243.267 50.084, 255.683 52.469 C 258.198 52.953, 258.125 52.837, 255 51.392 C 243.441 46.046, 198.465 38.515, 165.260 36.364 C 155.149 35.709, 154.998 35.662, 153.188 32.600 C 152.179 30.895, 149.224 26.887, 146.620 23.694 L 141.886 17.888 145.193 18.435 C 147.012 18.735, 152.325 19.469, 157 20.064 C 177.116 22.626, 186.362 25.762, 199 34.306 C 202.560 36.713, 203.089 36.880, 201.535 35.108 C 198.387 31.518, 186.469 24.013, 180.691 21.983 C 167.237 17.254, 156.554 15.997, 130.343 16.058 C 106.402 16.113, 105.311 16.201, 100.285 18.486 M 88.468 40.922 C 84.050 41.348, 79.325 42.267, 77.968 42.965 C 72.760 45.642, 62.709 57.042, 64.222 58.556 C 64.426 58.759, 67.220 57.142, 70.431 54.963 C 78.070 49.778, 82.146 49.424, 89.415 53.314 C 93.385 55.439, 94.426 55.499, 126.500 55.450 L 159.500 55.401 165.720 52.700 C 175.621 48.402, 177.666 48.838, 191.206 58.135 C 198.135 62.893, 202.508 64.003, 214 63.920 L 223.500 63.851 215.500 62.138 C 205.610 60.020, 200.890 57.778, 197.006 53.354 C 193.157 48.970, 193.212 47.902, 197.250 48.661 C 207.442 50.578, 215.961 54.160, 220.908 58.607 C 227.188 64.253, 227.546 62.936, 221.545 56.262 C 217.864 52.167, 215.912 50.936, 210.295 49.166 C 202.783 46.799, 183.694 43.706, 166 41.988 C 151.688 40.598, 99.290 39.878, 88.468 40.922 M 226.138 53.334 C 225 54.704, 225.131 55.640, 227.001 59.502 C 228.213 62.006, 230.621 65.124, 232.352 66.431 C 236.715 69.725, 245.219 72.026, 252.432 71.864 C 258.412 71.729, 258.380 71.716, 250.254 70.930 C 244.694 70.392, 240.688 69.391, 237.955 67.854 C 233.587 65.399, 230 60.565, 230 57.132 C 230 55.108, 230.473 55, 239.364 55 C 250.437 55, 258.658 56.380, 261.180 58.663 C 262.181 59.569, 263.067 61.703, 263.150 63.405 L 263.300 66.500 263.722 63.685 C 264.790 56.576, 257.754 53.348, 238.989 52.338 C 229.112 51.806, 227.288 51.948, 226.138 53.334 M 73.397 55.250 L 70.524 57.500 76.480 58 C 81.690 58.437, 82.628 58.844, 83.968 61.250 C 85.344 63.720, 85.344 64.280, 83.968 66.750 C 82.628 69.156, 81.690 69.563, 76.480 70 L 70.524 70.500 73.397 72.750 C 77.457 75.930, 83.873 75.819, 87.818 72.500 L 90.789 70 128 70 L 165.211 70 168.182 72.500 C 171.636 75.406, 176.589 75.781, 181.050 73.474 C 185.445 71.201, 184.638 70, 178.716 70 C 173.905 70, 173.272 69.731, 171.659 67 C 169.963 64.129, 169.963 63.871, 171.659 61 C 173.272 58.269, 173.905 58, 178.716 58 C 184.638 58, 185.445 56.799, 181.050 54.526 C 176.589 52.219, 171.636 52.594, 168.182 55.500 L 165.211 58 127.106 58 C 103.038 58, 89 57.641, 89 57.026 C 89 55.436, 83.362 53, 79.685 53 C 77.661 53, 75.099 53.917, 73.397 55.250 M 18.475 95.060 C 14.213 96.300, 9.003 102.042, 7.971 106.634 C 5.893 115.883, 12.128 125.147, 21.363 126.532 C 28.603 127.617, 29.139 127.094, 28.796 119.264 L 28.500 112.500 24 112.500 C 19.867 112.500, 19.500 112.704, 19.500 115 C 19.500 116.831, 20.102 117.585, 21.750 117.820 C 22.988 117.995, 24 118.783, 24 119.570 C 24 122.940, 16.085 119.678, 14.195 115.528 C 10.852 108.191, 15.209 101.027, 23.602 100.061 C 27.319 99.633, 28.563 99.053, 28.837 97.620 C 29.486 94.230, 25.074 93.140, 18.475 95.060 M 154.250 94.731 C 153.563 94.970, 153 95.935, 153 96.875 C 153 99.072, 161.723 125.123, 162.829 126.229 C 164.947 128.347, 166.891 124.974, 171.390 111.368 C 175.450 99.091, 175.998 96.570, 174.856 95.428 C 172.582 93.155, 171.129 95.191, 167.679 105.483 L 164.375 115.338 161.185 105.275 C 158.110 95.576, 156.938 93.793, 154.250 94.731 M 200.693 95.450 C 199.273 96.870, 199 99.277, 199 110.380 C 199 120.111, 199.369 124.122, 200.392 125.521 C 201.574 127.138, 202.025 127.224, 203.392 126.090 C 204.289 125.346, 205 123.261, 205 121.378 C 205 118.283, 205.254 118, 208.032 118 C 215.707 118, 221 112.913, 221 105.535 C 221 102.905, 220.145 101.037, 217.739 98.412 C 214.869 95.281, 213.752 94.788, 208.432 94.305 C 203.578 93.865, 202.052 94.091, 200.693 95.450 M 306.701 94.632 C 306.316 95.018, 306 100.849, 306 107.590 C 306 119.240, 306.125 119.995, 308.527 122.850 C 311.628 126.535, 316.547 127.881, 318.775 125.654 C 320.054 124.375, 320.101 123.827, 319.042 122.550 C 318.334 121.698, 316.775 121, 315.578 121 C 312.179 121, 311 119.034, 311 113.366 C 311 108.400, 311.141 108.117, 313.750 107.816 C 317.592 107.374, 317.636 103.631, 313.805 103.189 C 311.415 102.913, 311.074 102.403, 310.805 98.697 C 310.514 94.706, 308.561 92.772, 306.701 94.632 M 205 106 L 205 112 208.500 112 C 213.169 112, 216.418 108.841, 215.532 105.163 C 214.688 101.658, 212.369 100, 208.309 100 L 205 100 205 106 M 36.659 105.054 C 30.602 109.818, 30.934 121.165, 37.243 125.001 C 40.676 127.089, 50.152 127.248, 52.149 125.251 C 52.806 124.594, 53.076 121.171, 52.839 116.482 C 52.476 109.291, 52.240 108.604, 49.210 105.896 C 45.285 102.389, 40.458 102.066, 36.659 105.054 M 60.984 105.862 C 58.139 108.707, 58 109.243, 58 117.364 C 58 126.009, 58.559 127.490, 61.410 126.396 C 62.661 125.916, 63 124.242, 63 118.548 C 63 110.656, 64.211 108.495, 69 107.841 C 70.720 107.607, 71.500 106.876, 71.500 105.500 C 71.500 103.909, 70.730 103.436, 67.734 103.189 C 64.658 102.934, 63.423 103.423, 60.984 105.862 M 77.766 105.918 C 74.758 108.605, 74.500 109.315, 74.500 114.895 C 74.500 120.163, 74.857 121.312, 77.234 123.688 C 79.604 126.058, 80.801 126.433, 86.234 126.508 C 89.680 126.555, 93.063 126.180, 93.750 125.674 C 95.456 124.420, 95.361 113.799, 93.606 109.599 C 90.663 102.556, 83.414 100.871, 77.766 105.918 M 100.923 105.923 C 98.387 108.459, 98 109.589, 98 114.458 C 98 117.892, 98.614 121.008, 99.582 122.485 C 101.484 125.387, 106.816 127.335, 110.399 126.436 C 113.359 125.693, 113.821 127.036, 111.429 129.429 C 109.226 131.631, 105.287 131.404, 104 129 C 102.862 126.874, 99.550 126.301, 98.473 128.044 C 98.118 128.618, 98.552 130.193, 99.437 131.544 C 100.889 133.760, 101.721 134, 107.966 134 C 117.178 134, 118 132.880, 118 120.325 C 118 109.976, 116.877 106.505, 112.855 104.425 C 108.372 102.107, 104.218 102.628, 100.923 105.923 M 124.301 104.772 C 117.946 109.766, 118.917 121.837, 125.967 125.483 C 129.846 127.489, 131.844 127.392, 135.750 125.011 C 139.430 122.767, 140.250 119, 137.059 119 C 135.991 119, 134.840 119.450, 134.500 120 C 133.641 121.390, 128.654 121.254, 127.200 119.800 C 124.957 117.557, 125.991 117, 132.393 117 C 139.393 117, 140.388 116.182, 139.396 111.239 C 137.954 104.060, 129.705 100.526, 124.301 104.772 M 226.917 105.782 C 221.055 111.021, 222.124 121.944, 228.839 125.417 C 231.757 126.925, 240.561 127.008, 242.922 125.548 C 243.904 124.941, 244.123 122.678, 243.776 116.700 C 243.343 109.205, 243.099 108.478, 240.140 105.834 C 235.883 102.031, 231.137 102.012, 226.917 105.782 M 251.984 105.862 C 249.139 108.707, 249 109.243, 249 117.364 C 249 126.035, 249.881 128.173, 252.544 125.964 C 253.547 125.131, 254.005 122.695, 254.015 118.128 C 254.033 110.257, 254.664 109.021, 259.121 108.109 C 261.575 107.607, 262.500 106.882, 262.500 105.459 C 262.500 103.916, 261.701 103.434, 258.734 103.189 C 255.658 102.934, 254.423 103.423, 251.984 105.862 M 272.500 104.135 C 268.049 106.639, 267.045 109.123, 267.022 117.691 C 267 126.018, 267.571 127.486, 270.410 126.396 C 271.661 125.916, 272 124.242, 272 118.548 C 272 110.656, 273.211 108.495, 278 107.841 C 281.837 107.318, 281.429 103.576, 277.500 103.255 C 275.850 103.121, 273.600 103.517, 272.500 104.135 M 286.917 105.782 C 280.998 111.071, 282.130 121.947, 288.967 125.483 C 292.834 127.483, 294.845 127.392, 298.696 125.044 C 304.975 121.215, 305.638 110.398, 299.889 105.560 C 295.735 102.065, 290.987 102.146, 286.917 105.782 M 39.750 109.080 C 38.518 109.798, 38 111.357, 38 114.350 C 38 119.317, 39.322 121, 43.225 121 C 47.864 121, 49.705 113.705, 46 110 C 43.778 107.778, 42.347 107.567, 39.750 109.080 M 80.363 110.568 C 77.792 114.493, 79.485 120.384, 83.310 120.822 C 87.362 121.287, 89 119.441, 89 114.413 C 89 111.143, 88.522 109.815, 87.066 109.035 C 83.995 107.392, 82.171 107.809, 80.363 110.568 M 104.571 109.571 C 102.719 111.424, 102.478 118.078, 104.200 119.800 C 106.101 121.701, 110.792 121.258, 111.965 119.066 C 115.483 112.492, 109.427 104.716, 104.571 109.571 M 127.200 109.200 C 125.133 111.267, 125.865 112, 130 112 C 132.200 112, 134 111.640, 134 111.200 C 134 109.849, 131.688 108, 130 108 C 129.120 108, 127.860 108.540, 127.200 109.200 M 230 110 C 226.295 113.705, 228.136 121, 232.775 121 C 236.681 121, 238 119.317, 238 114.335 C 238 111.142, 237.514 109.810, 236.066 109.035 C 233.318 107.565, 232.269 107.731, 230 110 M 290.464 109.403 C 289.106 110.395, 288.545 112.018, 288.545 114.953 C 288.545 119.321, 289.904 120.957, 293.550 120.985 C 296.675 121.008, 298 119.029, 298 114.335 C 298 111.142, 297.514 109.810, 296.066 109.035 C 293.526 107.676, 292.756 107.726, 290.464 109.403 M 178.200 120.200 C 176.400 122, 176.753 124.798, 178.928 125.961 C 182.664 127.961, 185.961 124.664, 183.961 120.928 C 182.798 118.753, 180 118.400, 178.200 120.200" stroke="none" fill="#ffffff" fill-rule="evenodd"/><path d="M 99.500 19.375 C 95.650 21.192, 89.248 25.113, 85.273 28.089 C 81.298 31.065, 75.756 34.754, 72.958 36.286 C 69.122 38.387, 67.399 40.109, 65.957 43.286 C 62.659 50.552, 63.537 51.367, 68.893 46.011 C 75.588 39.317, 79.718 38.312, 104.500 37.344 C 120.319 36.727, 123.141 36.424, 118 35.899 C 114.425 35.533, 105.088 35.181, 97.250 35.117 C 88.723 35.047, 83 34.608, 83 34.023 C 83 32.407, 93.150 24.856, 98.500 22.493 C 106.262 19.065, 113.658 17.652, 124 17.620 C 130.906 17.598, 134.333 18.035, 136.552 19.218 C 140.248 21.190, 146.678 28.044, 149.949 33.500 C 151.268 35.700, 152.465 37.658, 152.609 37.852 C 152.753 38.045, 158.637 38.837, 165.685 39.612 C 192.892 42.601, 210.353 46.099, 218.296 50.151 C 221.339 51.703, 222.456 51.867, 223.591 50.925 C 225.005 49.751, 245.183 50.133, 252.500 51.472 C 254.150 51.774, 253.025 51.101, 250 49.976 C 238.404 45.663, 200.014 39.471, 169.500 36.992 C 157.550 36.021, 155.280 35.566, 154 33.886 C 153.175 32.803, 150.064 28.725, 147.087 24.823 L 141.674 17.729 147.587 18.419 C 172.873 21.370, 183.127 24.175, 195 31.386 L 199.500 34.120 196 31.095 C 183.334 20.146, 164.951 15.984, 129.500 16.037 L 106.500 16.072 99.500 19.375 M 127.750 37.662 C 128.438 37.940, 129.563 37.940, 130.250 37.662 C 130.938 37.385, 130.375 37.158, 129 37.158 C 127.625 37.158, 127.063 37.385, 127.750 37.662 M 92.405 41.041 C 80.376 41.852, 76.759 43.098, 71.165 48.362 C 68.023 51.318, 64.453 56.786, 65.186 57.519 C 65.369 57.703, 68.148 56.086, 71.361 53.926 C 78.353 49.226, 81.135 49.039, 88.812 52.750 L 94.500 55.500 126 55.350 C 156.064 55.206, 157.774 55.096, 163.500 52.942 C 166.800 51.700, 171.780 50.493, 174.566 50.260 C 179.286 49.865, 180.073 50.151, 186.066 54.430 C 196.704 62.025, 200.157 63.277, 211.500 63.656 L 221.500 63.989 215.481 62.605 C 206.678 60.579, 201.970 58.361, 197.750 54.248 C 193.958 50.553, 192.944 48, 195.270 48 C 197.528 48, 211.149 52.027, 214.372 53.647 C 216.092 54.513, 219.188 56.837, 221.250 58.813 C 223.313 60.789, 225 62.042, 225 61.597 C 225 59.984, 218.718 52.905, 216.072 51.537 C 201.231 43.863, 134.546 38.203, 92.405 41.041 M 227.250 52.662 C 226.563 52.940, 226 54.398, 226 55.903 C 226 60.585, 235.559 70.059, 240.200 69.977 C 240.915 69.965, 240.006 69.218, 238.180 68.318 C 231.975 65.261, 226.801 55.824, 230.665 54.614 C 233.552 53.709, 256.372 55.594, 258.898 56.945 C 260.148 57.614, 261.376 57.957, 261.627 57.706 C 261.878 57.455, 260.240 56.513, 257.987 55.611 C 251.991 53.212, 230.901 51.189, 227.250 52.662" stroke="none" fill="#323133" fill-rule="evenodd"/><path d="M 122.264 17.718 C 123.784 17.947, 126.034 17.941, 127.264 17.704 C 128.494 17.467, 127.250 17.279, 124.500 17.286 C 121.750 17.294, 120.744 17.488, 122.264 17.718 M 84.924 31.750 L 82.500 34.500 85.250 32.076 C 87.820 29.810, 88.459 29, 87.674 29 C 87.495 29, 86.258 30.238, 84.924 31.750 M 113.750 35.662 C 114.438 35.940, 115.563 35.940, 116.250 35.662 C 116.938 35.385, 116.375 35.158, 115 35.158 C 113.625 35.158, 113.063 35.385, 113.750 35.662 M 114 37 L 103.500 37.609 115.250 37.804 C 122.547 37.926, 127 37.621, 127 37 C 127 36.450, 126.438 36.088, 125.750 36.196 C 125.063 36.303, 119.775 36.665, 114 37 M 164.750 36.662 C 165.438 36.940, 166.563 36.940, 167.250 36.662 C 167.938 36.385, 167.375 36.158, 166 36.158 C 164.625 36.158, 164.063 36.385, 164.750 36.662 M 97.762 40.707 C 99.006 40.946, 100.806 40.937, 101.762 40.687 C 102.718 40.437, 101.700 40.241, 99.500 40.252 C 97.300 40.263, 96.518 40.468, 97.762 40.707 M 135.750 40.706 C 136.988 40.944, 139.012 40.944, 140.250 40.706 C 141.488 40.467, 140.475 40.272, 138 40.272 C 135.525 40.272, 134.512 40.467, 135.750 40.706 M 155.750 41.662 C 156.438 41.940, 157.563 41.940, 158.250 41.662 C 158.938 41.385, 158.375 41.158, 157 41.158 C 155.625 41.158, 155.063 41.385, 155.750 41.662 M 241.750 50.662 C 242.438 50.940, 243.563 50.940, 244.250 50.662 C 244.938 50.385, 244.375 50.158, 243 50.158 C 241.625 50.158, 241.063 50.385, 241.750 50.662 M 63 52.500 C 63 53.325, 63.177 54, 63.393 54 C 63.609 54, 64.045 53.325, 64.362 52.500 C 64.678 51.675, 64.501 51, 63.969 51 C 63.436 51, 63 51.675, 63 52.500 M 255 52.031 C 255 52.564, 255.675 53, 256.500 53 C 257.325 53, 258 52.823, 258 52.607 C 258 52.391, 257.325 51.955, 256.500 51.638 C 255.675 51.322, 255 51.499, 255 52.031 M 239.750 52.662 C 240.438 52.940, 241.563 52.940, 242.250 52.662 C 242.938 52.385, 242.375 52.158, 241 52.158 C 239.625 52.158, 239.063 52.385, 239.750 52.662 M 73.397 55.250 L 70.524 57.500 76.480 58 C 81.690 58.437, 82.628 58.844, 83.968 61.250 C 85.344 63.720, 85.344 64.280, 83.968 66.750 C 82.628 69.156, 81.690 69.563, 76.480 70 L 70.524 70.500 73.397 72.750 C 77.457 75.930, 83.873 75.819, 87.818 72.500 L 90.789 70 128 70 L 165.211 70 168.182 72.500 C 171.636 75.406, 176.589 75.781, 181.050 73.474 C 185.445 71.201, 184.638 70, 178.716 70 C 173.905 70, 173.272 69.731, 171.659 67 C 169.963 64.129, 169.963 63.871, 171.659 61 C 173.272 58.269, 173.905 58, 178.716 58 C 184.638 58, 185.445 56.799, 181.050 54.526 C 176.589 52.219, 171.636 52.594, 168.182 55.500 L 165.211 58 127.106 58 C 103.038 58, 89 57.641, 89 57.026 C 89 55.436, 83.362 53, 79.685 53 C 77.661 53, 75.099 53.917, 73.397 55.250 M 232.762 54.707 C 234.006 54.946, 235.806 54.937, 236.762 54.687 C 237.718 54.437, 236.700 54.241, 234.500 54.252 C 232.300 54.263, 231.518 54.468, 232.762 54.707 M 98.762 55.707 C 100.006 55.946, 101.806 55.937, 102.762 55.687 C 103.718 55.437, 102.700 55.241, 100.500 55.252 C 98.300 55.263, 97.518 55.468, 98.762 55.707 M 138.250 55.728 C 140.313 55.944, 143.688 55.944, 145.750 55.728 C 147.813 55.513, 146.125 55.336, 142 55.336 C 137.875 55.336, 136.188 55.513, 138.250 55.728 M 230.500 65 C 231.495 66.100, 232.535 67, 232.810 67 C 233.085 67, 232.495 66.100, 231.500 65 C 230.505 63.900, 229.465 63, 229.190 63 C 228.915 63, 229.505 63.900, 230.500 65 M 244.500 71 C 244.840 71.550, 245.568 72, 246.118 72 C 246.668 72, 246.840 71.550, 246.500 71 C 246.160 70.450, 245.432 70, 244.882 70 C 244.332 70, 244.160 70.450, 244.500 71 M 251.264 71.718 C 252.784 71.947, 255.034 71.941, 256.264 71.704 C 257.494 71.467, 256.250 71.279, 253.500 71.286 C 250.750 71.294, 249.744 71.488, 251.264 71.718 M 18.475 95.060 C 14.213 96.300, 9.003 102.042, 7.971 106.634 C 5.893 115.883, 12.128 125.147, 21.363 126.532 C 28.603 127.617, 29.139 127.094, 28.796 119.264 L 28.500 112.500 24 112.500 C 19.867 112.500, 19.500 112.704, 19.500 115 C 19.500 116.831, 20.102 117.585, 21.750 117.820 C 22.988 117.995, 24 118.783, 24 119.570 C 24 122.940, 16.085 119.678, 14.195 115.528 C 10.852 108.191, 15.209 101.027, 23.602 100.061 C 27.319 99.633, 28.563 99.053, 28.837 97.620 C 29.486 94.230, 25.074 93.140, 18.475 95.060 M 154.250 94.731 C 153.563 94.970, 153 95.935, 153 96.875 C 153 99.072, 161.723 125.123, 162.829 126.229 C 164.947 128.347, 166.891 124.974, 171.390 111.368 C 175.450 99.091, 175.998 96.570, 174.856 95.428 C 172.582 93.155, 171.129 95.191, 167.679 105.483 L 164.375 115.338 161.185 105.275 C 158.110 95.576, 156.938 93.793, 154.250 94.731 M 200.693 95.450 C 199.273 96.870, 199 99.277, 199 110.380 C 199 120.111, 199.369 124.122, 200.392 125.521 C 201.574 127.138, 202.025 127.224, 203.392 126.090 C 204.289 125.346, 205 123.261, 205 121.378 C 205 118.283, 205.254 118, 208.032 118 C 215.707 118, 221 112.913, 221 105.535 C 221 102.905, 220.145 101.037, 217.739 98.412 C 214.869 95.281, 213.752 94.788, 208.432 94.305 C 203.578 93.865, 202.052 94.091, 200.693 95.450 M 306.701 94.632 C 306.316 95.018, 306 100.849, 306 107.590 C 306 119.240, 306.125 119.995, 308.527 122.850 C 311.628 126.535, 316.547 127.881, 318.775 125.654 C 320.054 124.375, 320.101 123.827, 319.042 122.550 C 318.334 121.698, 316.775 121, 315.578 121 C 312.179 121, 311 119.034, 311 113.366 C 311 108.400, 311.141 108.117, 313.750 107.816 C 317.592 107.374, 317.636 103.631, 313.805 103.189 C 311.415 102.913, 311.074 102.403, 310.805 98.697 C 310.514 94.706, 308.561 92.772, 306.701 94.632 M 205 106 L 205 112 208.500 112 C 213.169 112, 216.418 108.841, 215.532 105.163 C 214.688 101.658, 212.369 100, 208.309 100 L 205 100 205 106 M 36.659 105.054 C 30.602 109.818, 30.934 121.165, 37.243 125.001 C 40.676 127.089, 50.152 127.248, 52.149 125.251 C 52.806 124.594, 53.076 121.171, 52.839 116.482 C 52.476 109.291, 52.240 108.604, 49.210 105.896 C 45.285 102.389, 40.458 102.066, 36.659 105.054 M 60.984 105.862 C 58.139 108.707, 58 109.243, 58 117.364 C 58 126.009, 58.559 127.490, 61.410 126.396 C 62.661 125.916, 63 124.242, 63 118.548 C 63 110.656, 64.211 108.495, 69 107.841 C 70.720 107.607, 71.500 106.876, 71.500 105.500 C 71.500 103.909, 70.730 103.436, 67.734 103.189 C 64.658 102.934, 63.423 103.423, 60.984 105.862 M 77.766 105.918 C 74.758 108.605, 74.500 109.315, 74.500 114.895 C 74.500 120.163, 74.857 121.312, 77.234 123.688 C 79.604 126.058, 80.801 126.433, 86.234 126.508 C 89.680 126.555, 93.063 126.180, 93.750 125.674 C 95.456 124.420, 95.361 113.799, 93.606 109.599 C 90.663 102.556, 83.414 100.871, 77.766 105.918 M 100.923 105.923 C 98.387 108.459, 98 109.589, 98 114.458 C 98 117.892, 98.614 121.008, 99.582 122.485 C 101.484 125.387, 106.816 127.335, 110.399 126.436 C 113.359 125.693, 113.821 127.036, 111.429 129.429 C 109.226 131.631, 105.287 131.404, 104 129 C 102.862 126.874, 99.550 126.301, 98.473 128.044 C 98.118 128.618, 98.552 130.193, 99.437 131.544 C 100.889 133.760, 101.721 134, 107.966 134 C 117.178 134, 118 132.880, 118 120.325 C 118 109.976, 116.877 106.505, 112.855 104.425 C 108.372 102.107, 104.218 102.628, 100.923 105.923 M 124.301 104.772 C 117.946 109.766, 118.917 121.837, 125.967 125.483 C 129.846 127.489, 131.844 127.392, 135.750 125.011 C 139.430 122.767, 140.250 119, 137.059 119 C 135.991 119, 134.840 119.450, 134.500 120 C 133.641 121.390, 128.654 121.254, 127.200 119.800 C 124.957 117.557, 125.991 117, 132.393 117 C 139.393 117, 140.388 116.182, 139.396 111.239 C 137.954 104.060, 129.705 100.526, 124.301 104.772 M 226.917 105.782 C 221.055 111.021, 222.124 121.944, 228.839 125.417 C 231.757 126.925, 240.561 127.008, 242.922 125.548 C 243.904 124.941, 244.123 122.678, 243.776 116.700 C 243.343 109.205, 243.099 108.478, 240.140 105.834 C 235.883 102.031, 231.137 102.012, 226.917 105.782 M 251.984 105.862 C 249.139 108.707, 249 109.243, 249 117.364 C 249 126.035, 249.881 128.173, 252.544 125.964 C 253.547 125.131, 254.005 122.695, 254.015 118.128 C 254.033 110.257, 254.664 109.021, 259.121 108.109 C 261.575 107.607, 262.500 106.882, 262.500 105.459 C 262.500 103.916, 261.701 103.434, 258.734 103.189 C 255.658 102.934, 254.423 103.423, 251.984 105.862 M 272.500 104.135 C 268.049 106.639, 267.045 109.123, 267.022 117.691 C 267 126.018, 267.571 127.486, 270.410 126.396 C 271.661 125.916, 272 124.242, 272 118.548 C 272 110.656, 273.211 108.495, 278 107.841 C 281.837 107.318, 281.429 103.576, 277.500 103.255 C 275.850 103.121, 273.600 103.517, 272.500 104.135 M 286.917 105.782 C 280.998 111.071, 282.130 121.947, 288.967 125.483 C 292.834 127.483, 294.845 127.392, 298.696 125.044 C 304.975 121.215, 305.638 110.398, 299.889 105.560 C 295.735 102.065, 290.987 102.146, 286.917 105.782 M 39.750 109.080 C 38.518 109.798, 38 111.357, 38 114.350 C 38 119.317, 39.322 121, 43.225 121 C 47.864 121, 49.705 113.705, 46 110 C 43.778 107.778, 42.347 107.567, 39.750 109.080 M 80.363 110.568 C 77.792 114.493, 79.485 120.384, 83.310 120.822 C 87.362 121.287, 89 119.441, 89 114.413 C 89 111.143, 88.522 109.815, 87.066 109.035 C 83.995 107.392, 82.171 107.809, 80.363 110.568 M 104.571 109.571 C 102.719 111.424, 102.478 118.078, 104.200 119.800 C 106.101 121.701, 110.792 121.258, 111.965 119.066 C 115.483 112.492, 109.427 104.716, 104.571 109.571 M 127.200 109.200 C 125.133 111.267, 125.865 112, 130 112 C 132.200 112, 134 111.640, 134 111.200 C 134 109.849, 131.688 108, 130 108 C 129.120 108, 127.860 108.540, 127.200 109.200 M 230 110 C 226.295 113.705, 228.136 121, 232.775 121 C 236.681 121, 238 119.317, 238 114.335 C 238 111.142, 237.514 109.810, 236.066 109.035 C 233.318 107.565, 232.269 107.731, 230 110 M 290.464 109.403 C 289.106 110.395, 288.545 112.018, 288.545 114.953 C 288.545 119.321, 289.904 120.957, 293.550 120.985 C 296.675 121.008, 298 119.029, 298 114.335 C 298 111.142, 297.514 109.810, 296.066 109.035 C 293.526 107.676, 292.756 107.726, 290.464 109.403 M 178.200 120.200 C 176.400 122, 176.753 124.798, 178.928 125.961 C 182.664 127.961, 185.961 124.664, 183.961 120.928 C 182.798 118.753, 180 118.400, 178.200 120.200" stroke="none" fill="#9b3134" fill-rule="evenodd"/></svg>